<?xml version="1.0" standalone="no"?>
<!DOCTYPE svg PUBLIC "-//W3C//DTD SVG 20010904//EN"
 "http://www.w3.org/TR/2001/REC-SVG-20010904/DTD/svg10.dtd">
<svg version="1.0" xmlns="http://www.w3.org/2000/svg"
 width="360.000000pt" height="360.000000pt" viewBox="0 0 360.000000 360.000000"
 preserveAspectRatio="xMidYMid meet">
<metadata>
Created by potrace 1.11, written by Peter Selinger 2001-2013
</metadata>
<g transform="translate(0.000000,360.000000) scale(0.100000,-0.100000)"
fill="#000000" stroke="none">
<path d="M1726 3593 c-27 -7 -87 -46 -107 -69 -20 -23 1 12 -456 -764 -99
-168 -213 -361 -254 -430 -40 -69 -79 -134 -85 -145 -6 -11 -45 -78 -87 -148
-174 -292 -230 -469 -231 -732 -1 -209 22 -337 91 -505 70 -172 152 -293 292
-430 183 -180 395 -293 646 -345 96 -20 323 -27 418 -14 85 12 243 52 294 74
309 132 533 332 677 604 45 86 108 261 120 331 3 19 10 58 15 85 10 52 8 337
-3 390 -17 77 -50 201 -56 210 -4 6 -13 28 -20 50 -14 46 -75 163 -145 280
-26 44 -55 94 -65 110 -85 148 -760 1292 -785 1330 -43 66 -72 91 -120 108
-42 14 -107 19 -139 10z"/>
</g>
</svg>
